# xmcd CD database file
#
# Track frame offsets:
#	150
#	14339
#	28730
#	42476
#	55737
#	69412
#	82926
#	96771
#	112357
#	125427
#	140210
#	153499
#	168167
#	182159
#	197896
#	211783
#	227137
#	241972
#	255749
#	269499
#	285281
#	299282
#	313469
#	328001
#
# Disc length: 4541 seconds
#
# Revision: 0
# Processed by: cddbd v1.5.2PL0 Copyright (c) Steve Scherf et al.
# Submitted via: CDex 1.51
#
DISCID=6b11bb18
DTITLE=Louis Armstrong - The Hot Fives And Hot Sevens, Volume 2
DYEAR=1928
DGENRE=Jazz
TTITLE0=Willie The Weeper
TTITLE1=Wild Man Blues
TTITLE2=Alligator Crawl
TTITLE3=Potato Head Blues
TTITLE4=Melancholy
TTITLE5=Weary Blues
TTITLE6=Twelfth Street Rag
TTITLE7=Keyhole Blues
TTITLE8=S.O.L. Blues
TTITLE9=Gully Low Blues
TTITLE10=That's When I'll Come Back To You
TTITLE11=Put'em Down Blues
TTITLE12=Ory's Creole Trombone
TTITLE13=The Last Time
TTITLE14=Struttin' With Some Barbecue
TTITLE15=Got No Blues
TTITLE16=Once In A While
TTITLE17=I'm Not Rough
TTITLE18=Hotter Than That
TTITLE19=Savoy Blues
TTITLE20=Fireworks
TTITLE21=Skip The Gutter
TTITLE22=A Monday Date
TTITLE23=Don't Jive Me
EXTD=YEAR: 1928
EXTT0=
EXTT1=
EXTT2=
EXTT3=
EXTT4=
EXTT5=
EXTT6=
EXTT7=
EXTT8=
EXTT9=
EXTT10=
EXTT11=
EXTT12=
EXTT13=
EXTT14=
EXTT15=
EXTT16=
EXTT17=
EXTT18=
EXTT19=
EXTT20=
EXTT21=
EXTT22=
EXTT23=
PLAYORDER=
